<svg width="16" height="16" viewBox="0 0 16 16" fill="none" xmlns="http://www.w3.org/2000/svg">
<g clip-path="url(#clip0_34_32)">
<path fill-rule="evenodd" clip-rule="evenodd" d="M2.28571 6.85714C2.28571 4.33241 4.33241 2.28571 6.85714 2.28571C9.38187 2.28571 11.4286 4.33241 11.4286 6.85714C11.4286 9.38187 9.38187 11.4286 6.85714 11.4286C4.33241 11.4286 2.28571 9.38187 2.28571 6.85714ZM6.85714 0C3.07005 0 0 3.07005 0 6.85714C0 10.6442 3.07005 13.7143 6.85714 13.7143C8.33803 13.7143 9.70928 13.2448 10.8302 12.4466L14.049 15.6655C14.4953 16.1118 15.219 16.1118 15.6653 15.6655C16.1115 15.2192 16.1115 14.4955 15.6653 14.0493L12.4465 10.8305C13.2448 9.7095 13.7143 8.33815 13.7143 6.85714C13.7143 3.07005 10.6442 0 6.85714 0Z" fill="currentColor"/>
</g>
<defs>
<clipPath id="clip0_34_32">
<rect width="16" height="16" fill="white"/>
</clipPath>
</defs>
</svg>
