<svg width="16" height="16" viewBox="0 0 16 16" fill="none" xmlns="http://www.w3.org/2000/svg">
<path fill-rule="evenodd" clip-rule="evenodd" d="M8 2.75C6.75736 2.75 5.75 3.75736 5.75 5C5.75 6.24264 6.75736 7.25 8 7.25C9.24264 7.25 10.25 6.24264 10.25 5C10.25 3.75736 9.24264 2.75 8 2.75ZM4.25 5C4.25 2.92893 5.92893 1.25 8 1.25C10.0711 1.25 11.75 2.92893 11.75 5C11.75 7.07107 10.0711 8.75 8 8.75C5.92893 8.75 4.25 7.07107 4.25 5ZM8 11.25C6.0011 11.25 4.35404 12.3987 3.86014 13.9002C3.73056 14.294 3.30636 14.5082 2.9126 14.3786C2.51884 14.2491 2.30465 13.8249 2.43422 13.4311C3.16522 11.2093 5.44025 9.75 8 9.75C10.5597 9.75 12.8348 11.2093 13.5658 13.4311C13.6954 13.8249 13.4812 14.2491 13.0874 14.3786C12.6936 14.5082 12.2694 14.294 12.1399 13.9002C11.646 12.3987 9.9989 11.25 8 11.25Z" fill="currentColor"></path>
</svg>
